#!OML:ASF F:\VICON\USERDATA\INSTALL\rory3\rory3.ASF
:FULLY-SPECIFIED
:DEGREES
938
root 0.0389144 17.743 -4.427 -3.85777 -21.1885 2.76689
lowerback 1.88899 -2.51936 -4.41082
upperback -1.46916 -3.42925 3.53115
thorax -2.10178 -1.62293 6.25899
lowerneck -21.3411 -6.90799 -13.1515
upperneck 28.3295 -8.52642 9.49665
head 14.3183 -3.9045 4.45644
rclavicle 4.17448e-015 -3.97569e-014
rhumerus 79.528 -59.1974 -47.0168
rradius 93.9941
rwrist 11.5213
rhand -56.2573 -1.93688
rfingers 7.12502
rthumb -28.5821 -29.7717
lclavicle 4.17448e-015 -3.97569e-014
lhumerus 40.9853 46.7776 2.74337
lradius 87.6717
lwrist 3.24246
lhand -41.21 22.7538
lfingers 7.12502
lthumb -14.134 52.2531
rfemur 3.20557 3.66377 11.7556
rtibia 40.4785
rfoot -5.31139 9.16639
rtoes 2.73921
lfemur -11.0873 2.52882 -21.8824
ltibia 22.2101
lfoot -9.44662 -4.57289
ltoes -11.2848
939
root 0.0533692 17.7506 -4.37397 -4.09498 -21.6223 2.99302
lowerback 2.09346 -2.61363 -4.72706
upperback -1.49245 -3.57184 3.56892
thorax -2.20056 -1.68541 6.49492
lowerneck -21.3773 -6.72922 -13.2126
upperneck 28.4551 -8.23931 9.47563
head 14.3401 -3.79267 4.52047
rclavicle -1.89839e-014 -6.36111e-015
rhumerus 80.8123 -59.1964 -48.3999
rradius 94.0955
rwrist 11.8493
rhand -56.1693 -2.45443
rfingers 7.12502
rthumb -28.498 -30.3034
lclavicle -1.89839e-014 -6.36111e-015
lhumerus 41.1093 46.6828 2.82529
lradius 87.8138
lwrist 3.22146
lhand -41.0408 22.0311
lfingers 7.12502
lthumb -13.971 51.5417
rfemur 2.53095 3.90034 11.2712
rtibia 41.8169
rfoot -3.84589 8.95713
rtoes 3.9657
lfemur -10.5508 2.80933 -22.181
ltibia 21.894
lfoot -9.59941 -4.36437
ltoes -10.925
940
root 0.0684854 17.7587 -4.31863 -4.28679 -22.0365 3.24651
lowerback 2.23748 -2.69781 -5.00763
upperback -1.54157 -3.69933 3.579
thorax -2.2967 -1.74002 6.67917
lowerneck -21.3192 -6.59443 -13.2634
upperneck 28.4667 -8.02137 9.44618
head 14.3009 -3.71155 4.56171
rclavicle -1.03368e-014 3.18055e-015
rhumerus 81.7048 -59.2126 -49.3343
rradius 94.089
rwrist 11.555
rhand -56.2705 -1.99831
rfingers 7.12502
rthumb -28.5947 -29.8311
lclavicle -1.03368e-014 3.18055e-015
lhumerus 41.2848 46.5749 2.97701
lradius 87.8516
lwrist 3.40204
lhand -40.9314 21.5739
lfingers 7.12502
lthumb -13.8656 51.0917
rfemur 1.75908 4.09222 10.7383
rtibia 43.1793
rfoot -2.44812 8.79173
rtoes 4.37466
lfemur -10.1045 3.02041 -22.5173
ltibia 21.5802
lfoot -9.71598 -4.13141
ltoes -8.67976
941
root 0.0828594 17.7627 -4.26193 -4.40475 -22.5012 3.36299
lowerback 2.29086 -2.75127 -5.09085
upperback -1.5472 -3.77591 3.58662
thorax -2.3155 -1.77621 6.74001
lowerneck -21.3072 -6.51848 -13.3373
upperneck 28.5225 -7.8916 9.45071
head 14.3073 -3.6657 4.60447
rclavicle 5.73494e-014 3.18055e-015
rhumerus 82.3023 -59.3639 -49.9672
rradius 94.0346
rwrist 10.9851
rhand -56.4657 -1.6675
rfingers 7.12502
rthumb -28.7812 -29.4687
lclavicle 5.73494e-014 3.18055e-015
lhumerus 41.6081 46.5492 3.26145
lradius 87.7892
lwrist 3.65553
lhand -40.7231 21.0811
lfingers 7.12502
lthumb -13.6647 50.6125
rfemur 0.93086 4.34001 10.3658
rtibia 44.5678
rfoot -1.19759 8.65798
rtoes 4.1117
lfemur -9.6533 3.22385 -22.7006
ltibia 21.288
lfoot -10.0055 -3.91013
ltoes -8.49395
942
root 0.0955156 17.7676 -4.21107 -4.50934 -22.9079 3.43499
lowerback 2.31145 -2.83001 -5.19984
upperback -1.48514 -3.88558 3.61488
thorax -2.23712 -1.83402 6.83327
lowerneck -21.3487 -6.46147 -13.2467
upperneck 28.5123 -7.75723 9.2255
head 14.2749 -3.62682 4.51976
rclavicle 2.99171e-014 -2.54444e-014
rhumerus 82.9545 -59.5197 -50.6709
rradius 93.9713
rwrist 10.2691
rhand -56.5948 -2.15891
rfingers 7.12502
rthumb -28.9046 -29.939
lclavicle 2.99171e-014 -2.54444e-014
lhumerus 41.9836 46.6587 3.58223
lradius 87.6259
lwrist 4.17415
lhand -40.3097 20.2645
lfingers 7.12502
lthumb -13.2663 49.8223
rfemur 0.0961886 4.59994 10.0746
rtibia 46.0011
rfoot -0.173998 8.49892
rtoes 3.93584
lfemur -9.19561 3.43013 -22.8302
ltibia 20.9826
lfoot -10.284 -3.73244
ltoes -9.90908
943
root 0.106781 17.7757 -4.16345 -4.61975 -23.3517 3.51286
lowerback 2.35884 -2.88651 -5.35069
upperback -1.32529 -3.96841 3.60673
thorax -2.07569 -1.8839 6.90876
lowerneck -21.7102 -6.43495 -12.8659
upperneck 28.5009 -7.65432 8.78277
head 14.2896 -3.58872 4.28469
rclavicle 1.68967e-015 -4.92986e-014
rhumerus 83.7437 -59.7537 -51.6724
rradius 93.882
rwrist 9.63753
rhand -56.5898 -2.75453
rfingers 7.12502
rthumb -28.8997 -30.5355
lclavicle 1.68967e-015 -4.92986e-014
lhumerus 42.3598 46.8964 3.87531
lradius 87.4856
lwrist 4.89616
lhand -39.9608 19.2472
lfingers 7.12502
lthumb -12.93 48.8266
rfemur -0.800761 4.80823 9.77459
rtibia 47.4688
rfoot 0.519205 8.43338
rtoes 2.96705
lfemur -8.77289 3.58889 -22.9507
ltibia 20.6591
lfoot -10.3562 -3.51837
ltoes -8.32147
944
root 0.116628 17.7805 -4.11894 -4.78551 -23.8013 3.71081
lowerback 2.46726 -2.90408 -5.59312
upperback -1.29501 -4.00611 3.55222
thorax -2.08737 -1.89978 6.99602
lowerneck -21.6913 -6.35796 -12.6667
upperneck 28.4834 -7.55186 8.58748
head 14.2428 -3.54966 4.1889
rclavicle 1.0138e-014 0
rhumerus 84.3577 -59.9967 -52.5677
rradius 93.6699
rwrist 9.36634
rhand -56.3831 -2.76126
rfingers 7.12502
rthumb -28.7023 -30.5758
lclavicle 1.0138e-014 0
lhumerus 42.7754 46.8352 4.25474
lradius 87.2583
lwrist 5.44109
lhand -40.4628 21.6747
lfingers 7.12502
lthumb -13.4139 51.2228
rfemur -1.73966 5.00408 9.37311
rtibia 48.9643
rfoot 0.820915 8.46881
rtoes 0.964421
lfemur -8.33184 3.67611 -23.1922
ltibia 20.3311
lfoot -10.2998 -3.21372
ltoes -6.7141
945
root 0.125826 17.7852 -4.07884 -4.8636 -24.1837 3.80598
lowerback 2.61393 -2.9506 -5.77065
upperback -1.57014 -4.08247 3.61382
thorax -2.42802 -1.91332 7.18634
lowerneck -20.7718 -6.15979 -12.9539
upperneck 28.3873 -7.28696 8.59975
head 13.9822 -3.49093 4.30136
rclavicle -1.39149e-015 -2.06736e-014
rhumerus 84.4031 -60.0346 -52.614
rradius 93.2439
rwrist 8.87978
rhand -56.0445 -2.19292
rfingers 7.12502
rthumb -28.3788 -30.0618
lclavicle -1.39149e-015 -2.06736e-014
lhumerus 42.7859 46.2696 4.45897
lradius 86.8918
lwrist 5.82937
lhand -40.8146 22.1038
lfingers 7.12502
lthumb -13.753 51.6293
rfemur -2.73041 5.14431 9.11136
rtibia 50.4498
rfoot 0.772951 8.59482
rtoes -1.40566
lfemur -7.96254 3.74725 -23.3317
ltibia 20.0323
lfoot -10.3172 -3.01986
ltoes -7.59042
946
root 0.133565 17.7854 -4.03795 -4.99035 -24.6184 3.92369
lowerback 2.69182 -3.13316 -6.04495
upperback -1.55798 -4.34054 3.68703
thorax -2.39194 -2.03983 7.43165
lowerneck -20.7139 -5.83158 -12.7775
upperneck 28.359 -6.78066 8.32449
head 13.8656 -3.29081 4.25464
rclavicle -2.26615e-014 1.59028e-015
rhumerus 85.4346 -60.0039 -53.6991
rradius 92.8027
rwrist 8.22226
rhand -55.819 -2.1037
rfingers 7.12502
rthumb -28.1632 -30.0083
lclavicle -2.26615e-014 1.59028e-015
lhumerus 42.3294 46.2978 4.06917
lradius 86.4362
lwrist 6.30338
lhand -40.0203 19.0337
lfingers 7.12502
lthumb -12.9874 48.6094
rfemur -3.70251 5.23018 8.81242
rtibia 51.8876
rfoot 0.466829 8.72036
rtoes -3.42565
lfemur -7.56477 3.8412 -23.4844
ltibia 19.7587
lfoot -10.6073 -2.89158
ltoes -8.62645
